<svg width="230" height="230" viewBox="0 0 230 230" fill="none" xmlns="http://www.w3.org/2000/svg">
<path d="M0 114.583C0 51.3007 51.3007 0 114.583 0C177.866 0 229.167 51.3007 229.167 114.583C229.167 177.866 177.866 229.167 114.583 229.167C51.3007 229.167 0 177.866 0 114.583Z" fill="#3856FE"/>
<path d="M65.3061 154.616C64.3757 153.685 63.9106 152.29 63.9106 150.429C63.9106 149.034 64.7827 147.987 66.5272 147.29C68.3878 146.475 70.0159 146.068 71.4113 146.068H77.8559L56.4732 124.686C53.8984 122.111 51.8423 119.121 50.3047 115.717C48.7929 112.112 48.0371 108.39 48.0371 104.553C48.0371 99.9097 49.0218 95.5562 50.9915 91.4925L38.6634 79.1644C38.3891 78.8901 38.1413 78.5731 37.9198 78.2131C36.9894 76.7013 36.5243 75.2477 36.5243 73.8523C36.5243 72.5731 37.0476 71.2939 38.0942 70.0147C39.2571 68.6192 40.7108 67.9215 42.4551 67.9215L42.4553 67.9218H76.3491L54.8297 46.4023C53.942 45.5146 53.364 44.4893 53.0956 43.3264C52.7467 41.6984 53.27 40.2447 54.6655 38.9656C55.8284 37.9189 57.2239 37.4538 58.8519 37.5701C60.5963 37.5701 62.0499 37.8608 63.2128 38.4422C67.7481 40.6518 72.1671 42.2798 76.4698 43.3264C80.8888 44.373 86.3545 44.8963 92.8666 44.8963C95.425 44.8963 97.402 45.536 98.7974 46.8151C98.8846 46.895 98.9691 46.9759 99.0508 47.0576L143.453 91.4595V56.11L128.989 41.6462C128.049 40.7064 127.579 39.6384 127.579 38.4423C127.579 36.9305 128.277 35.7676 129.672 34.9536C129.911 34.8066 130.154 34.6714 130.402 34.5477C131.721 33.8879 133.164 33.5581 134.731 33.5581H153.047C155.046 33.5581 156.854 34.3673 158.473 35.9856L228.879 106.392C229.07 109.097 229.167 111.829 229.167 114.583C229.167 175.93 180.957 226.016 120.357 229.023L81.8695 190.536C79.0979 187.765 77.7631 183.466 77.8653 177.641L77.8652 177.641V167.175L65.3061 154.616Z" fill="url(#paint0_linear)"/>
<path d="M42.4542 67.9218H116.763C118.508 67.9218 120.019 68.5613 121.299 69.8406C122.578 71.1197 123.217 72.4571 123.217 73.8525C123.217 75.248 122.578 76.7017 121.299 78.2134C120.02 79.7252 118.508 80.4811 116.763 80.4811H87.2839C81.3531 81.0625 76.4689 83.3883 72.6314 87.4585C68.7938 91.4123 66.875 96.9943 66.875 104.204C66.875 109.205 68.3287 113.159 71.2359 116.066C74.1432 118.973 77.5156 120.427 81.3531 120.427C85.8884 120.427 89.4934 119.089 92.1681 116.415C94.8428 113.74 96.18 110.426 96.18 106.472C96.18 102.518 95.4823 99.3782 94.0868 97.0524C92.8076 94.7267 90.4818 92.866 87.1094 91.4705C86.0628 91.1217 85.0744 90.6565 84.1441 90.075C83.33 89.3773 83.0974 88.3307 83.4463 86.9352C83.7952 85.4234 84.8999 84.5512 86.7606 84.3187C88.6212 83.9698 90.0167 83.7954 90.947 83.7954C97.5755 83.7954 103.274 85.7723 108.042 89.7262C112.809 93.5637 115.193 98.9712 115.193 105.949C115.193 110.484 114.263 114.496 112.402 117.985C110.542 121.473 108.1 124.439 105.076 126.881C101.936 129.207 98.2732 131.009 94.0868 132.288C90.0167 133.451 85.714 134.033 81.1786 134.033C76.0619 134.033 71.4684 133.219 67.3983 131.591C63.3282 129.962 59.8395 127.811 56.9322 125.136C54.1413 122.462 51.9318 119.322 50.3037 115.717C48.7919 112.112 48.036 108.391 48.036 104.553C48.036 99.9016 49.0245 95.5407 51.0014 91.4706C53.0946 87.2842 56.06 83.621 59.8975 80.4812H42.1052C40.2446 80.4812 38.8491 79.7253 37.9188 78.2135C36.9885 76.7018 36.5233 75.2482 36.5233 73.8526C36.5233 72.5735 37.0466 71.2943 38.0932 70.0151C39.2561 68.6196 40.7098 67.9218 42.4542 67.9218ZM64.6074 54.6647L55.7113 47.164C54.3158 46.1174 53.4436 44.8382 53.0948 43.3265C52.7459 41.6984 53.2692 40.2448 54.6647 38.9656C55.8276 37.919 57.2231 37.4538 58.8511 37.5701C60.5954 37.5701 62.049 37.8609 63.212 38.4423C67.7473 40.6519 72.1663 42.2799 76.469 43.3265C80.888 44.3731 86.3536 44.8964 92.8659 44.8964C95.4243 44.8964 97.4012 45.536 98.7967 46.8152C100.192 48.0944 100.89 49.6061 100.89 51.3505C100.89 53.4437 99.9596 55.0136 98.0989 56.0602C96.3546 56.9906 94.6103 57.4557 92.8659 57.4557H77.3412C74.0851 57.4557 71.5268 57.2231 69.6661 56.7579C67.8055 56.2928 66.1192 55.595 64.6074 54.6647ZM161.593 42.6287V85.0163H186.014C187.526 85.0163 188.979 85.6559 190.375 86.9351C191.887 88.2143 192.643 89.7261 192.643 91.4705C192.643 93.2148 191.887 94.7266 190.375 96.0058C188.979 97.1687 187.584 97.7501 186.188 97.7501H161.593V137.172C161.593 143.103 160.372 147.58 157.93 150.604C155.488 153.511 152.174 154.965 147.987 154.965H143.452V53.2693C143.452 49.7806 142.87 47.5711 141.708 46.6407C140.545 45.5941 138.684 44.7219 136.126 44.0242C132.986 43.6753 130.776 43.0358 129.497 42.1054C128.218 41.0588 127.578 39.8377 127.578 38.4423C127.578 36.9305 128.276 35.7676 129.672 34.9536C131.183 34.0233 132.87 33.5581 134.73 33.5581H153.046C155.255 33.5581 157.232 34.5465 158.977 36.5235C160.721 38.3841 161.593 40.4193 161.593 42.6287ZM77.8645 177.641V165.605C77.8645 162.233 77.4574 160.14 76.6434 159.326C75.9457 158.395 74.1432 157.581 71.2359 156.883C68.2124 156.186 66.2355 155.43 65.3051 154.616C64.3748 153.685 63.9097 152.29 63.9097 150.429C63.9097 149.034 64.7819 147.987 66.5262 147.29C68.3868 146.476 70.0149 146.068 71.4104 146.068H87.2839C89.6097 146.068 91.7029 146.941 93.5635 148.685C95.4242 150.429 96.3545 152.523 96.3545 154.965V177.816C96.3545 179.211 96.7033 180.316 97.4011 181.13C98.2151 182.06 99.3199 182.525 100.715 182.525H158.628C160.372 182.525 161.942 183.223 163.337 184.619C164.849 186.014 165.605 187.526 165.605 189.154C165.605 190.549 164.907 191.945 163.512 193.34C162.116 194.852 160.546 195.608 158.802 195.608H98.2733C91.8773 195.608 86.8187 194.271 83.0974 191.596C79.4924 188.921 77.7482 184.27 77.8645 177.641Z" fill="white"/>
<defs>
<linearGradient id="paint0_linear" x1="36.5243" y1="33.5581" x2="368.567" y2="371.532" gradientUnits="userSpaceOnUse">
<stop stop-opacity="0.3"/>
<stop offset="1" stop-opacity="0"/>
</linearGradient>
</defs>
</svg>
