<svg width="434" height="500" viewBox="0 0 434 500" fill="none" xmlns="http://www.w3.org/2000/svg">
<path fill-rule="evenodd" clip-rule="evenodd" d="M357.998 105.818C459.553 207.178 436.282 380.145 397.742 470.653C360.445 558.239 328.783 379.781 176.095 385.918C-7.27894 393.287 -48.6144 116.012 68.5316 32.054C163.148 -35.739 275.38 23.3169 357.998 105.818Z" fill="#F3F5FE"/>
<path d="M74.496 88.0645H70.272V107.52H72.832C77.12 107.52 81.856 107.264 86.752 106.24L86.336 102.784C82.208 103.584 78.208 103.904 74.496 104V88.0645ZM96.576 96.3845H92.448V85.2485H88.224V114.688H92.448V99.8725H96.576V96.3845ZM100.158 88.2885V91.7125H109.79C109.022 98.2405 105.374 102.912 98.5255 106.432L100.894 109.664C110.686 104.704 114.046 97.1205 114.046 88.2885H100.158ZM126.014 96.5125H121.886V85.2485H117.662V114.688H121.886V100H126.014V96.5125ZM133.595 91.4245H143.131V88.0005H129.403V107.744H131.899C137.019 107.744 141.051 107.584 145.499 106.784L145.083 103.296C141.275 103.936 137.787 104.16 133.595 104.224V91.4245ZM155.611 96.1605H151.323V85.2805H147.099V114.816H151.323V99.6485H155.611V96.1605Z" fill="#CECFD3"/>
<path d="M320.856 151.28H316.6V167.952H320.856V151.28ZM304.792 156.304C307.032 156.304 308.696 157.648 308.696 159.856C308.696 162.064 307.032 163.408 304.792 163.408C302.552 163.408 300.92 162.064 300.92 159.856C300.92 157.648 302.552 156.304 304.792 156.304ZM304.792 166.928C309.4 166.928 312.824 163.984 312.824 159.856C312.824 155.728 309.4 152.784 304.792 152.784C300.248 152.784 296.792 155.728 296.792 159.856C296.792 163.984 300.248 166.928 304.792 166.928ZM317.88 169.168H313.72V170.16C313.72 172.336 312.728 174.8 310.36 176.56C308.024 174.928 307.096 172.496 307.096 170.16V169.168H303V170.16C303 173.008 301.4 175.92 297.496 177.232L299.576 180.304C302.232 179.344 304.024 177.616 305.048 175.472C306.008 177.712 307.704 179.632 310.392 180.624C313.08 179.568 314.776 177.616 315.736 175.376C316.728 177.616 318.552 179.376 321.336 180.304L323.384 177.232C319.48 176.048 317.88 173.2 317.88 170.16V169.168ZM331.158 157.424H340.694V154H326.966V173.744H329.462C334.582 173.744 338.614 173.584 343.062 172.784L342.646 169.296C338.838 169.936 335.35 170.16 331.158 170.224V157.424ZM353.174 162.16H348.886V151.28H344.662V180.816H348.886V165.648H353.174V162.16Z" fill="#CECFD3"/>
<path d="M73.792 259.312C73.792 257.136 75.36 255.856 77.504 255.856C79.68 255.856 81.248 257.136 81.248 259.312C81.248 261.52 79.68 262.8 77.504 262.8C75.36 262.8 73.792 261.52 73.792 259.312ZM89.792 261.008V266.864H94.016V251.28H89.792V257.584H85.056C84.256 254.448 81.28 252.368 77.504 252.368C73.088 252.368 69.76 255.28 69.76 259.312C69.76 263.376 73.088 266.288 77.504 266.288C81.28 266.288 84.288 264.176 85.088 261.008H89.792ZM79.488 277.264H76.512V274.48H79.488V277.264ZM92.096 268.304H87.936V270.512C87.936 273.168 86.592 275.888 83.36 277.392V268.56H79.488V271.44H76.512V268.56H72.608V280.4H83.36V278.192L85.024 280.72C87.392 279.792 88.992 278.128 89.952 276.112C90.912 278.16 92.544 279.824 95.008 280.72L97.088 277.584C93.504 276.336 92.096 273.552 92.096 270.512V268.304ZM104.158 257.424H113.694V254H99.9655V273.744H102.462C107.582 273.744 111.614 273.584 116.062 272.784L115.646 269.296C111.838 269.936 108.35 270.16 104.158 270.224V257.424ZM126.174 262.16H121.886V251.28H117.662V280.816H121.886V265.648H126.174V262.16Z" fill="#CECFD3"/>
<path d="M265.192 339.576H259.4V336.536H265.192V339.576ZM269.352 329.72H265.192V333.368H259.4V329.72H255.24V342.872H269.352V329.72ZM261.128 352.664H266.888V345.144H257V348.216H262.824V349.816H257.064V357.432H258.984C264.776 357.432 266.792 357.368 269.16 356.824L268.744 353.784C266.792 354.232 265.128 354.328 261.128 354.36V352.664ZM268.072 348.472H273.416V357.56H277.576V345.144H268.072V348.472ZM281.448 334.168H277.576V328.28H273.352V343.896H277.576V337.624H281.448V334.168ZM289.158 334.424H298.694V331H284.966V350.744H287.462C292.582 350.744 296.614 350.584 301.062 349.784L300.646 346.296C296.838 346.936 293.35 347.16 289.158 347.224V334.424ZM311.174 339.16H306.886V328.28H302.662V357.816H306.886V342.648H311.174V339.16Z" fill="#CECFD3"/>
<path d="M189.24 238.864C189.336 238 189.4 237.04 189.4 236.048C189.4 235.024 189.336 234.064 189.208 233.168H191.8V238.864H189.24ZM183.032 242.8C181.368 242.8 180.408 240.56 180.408 236.048C180.408 231.536 181.368 229.328 183.032 229.328C184.664 229.328 185.624 231.536 185.624 236.048C185.624 240.56 184.664 242.8 183.032 242.8ZM191.8 229.776H188.408C187.32 226.928 185.432 225.36 183.032 225.36C179.096 225.36 176.632 229.392 176.632 236.048C176.632 242.736 179.096 246.768 183.032 246.768C185.464 246.768 187.352 245.136 188.44 242.288H191.8V251.408H195.736V223.76H191.8V229.776ZM197.656 223.248V252.72H201.656V223.248H197.656ZM207.446 225.488V240.912H218.23V225.488H214.166V230.096H211.606V225.488H207.446ZM211.606 233.424H214.166V237.552H211.606V233.424ZM220.022 225.488V240.912H230.838V225.488H226.678V230.096H224.086V225.488H220.022ZM224.086 233.424H226.678V237.552H224.086V233.424ZM205.814 245.84V249.264H232.47V245.84H205.814ZM240.595 229.424H250.131V226H236.403V245.744H238.899C244.019 245.744 248.051 245.584 252.499 244.784L252.083 241.296C248.275 241.936 244.787 242.16 240.595 242.224V229.424ZM262.611 234.16H258.323V223.28H254.099V252.816H258.323V237.648H262.611V234.16Z" fill="#B7BEFF"/>
</svg>
